<?xml version="1.0" encoding="utf-8"?>
<!-- Generator: Adobe Illustrator 16.0.0, SVG Export Plug-In . SVG Version: 6.00 Build 0)  -->
<!DOCTYPE svg PUBLIC "-//W3C//DTD SVG 1.1//EN" "http://www.w3.org/Graphics/SVG/1.1/DTD/svg11.dtd">
<svg version="1.1" id="Layer_1" xmlns="http://www.w3.org/2000/svg" xmlns:xlink="http://www.w3.org/1999/xlink" x="0px" y="0px"
	 width="410px" height="410px" viewBox="0 0 410 410" enable-background="new 0 0 410 410" xml:space="preserve">
<circle fill="#434343" stroke="#FFFFFF" stroke-width="6" stroke-miterlimit="10" cx="204.896" cy="205.591" r="198.295"/>
<g>
	<defs>
		<circle id="SVGID_1_" cx="204.896" cy="205.591" r="185"/>
	</defs>
	<clipPath id="SVGID_2_">
		<use xlink:href="#SVGID_1_"  overflow="visible"/>
	</clipPath>
	<g clip-path="url(#SVGID_2_)">
		<path fill="#FFFFFF" d="M138.771,291.566c0.016,9.062-7.226,16.332-16.262,16.323c-8.968-0.008-16.356-7.438-16.284-16.375
			c0.071-8.89,7.341-16.149,16.209-16.188C131.494,275.287,138.756,282.506,138.771,291.566z"/>
		<path fill="#FFFFFF" d="M236.474,291.503c0.044,9.071-7.169,16.369-16.198,16.387c-8.979,0.019-16.371-7.357-16.348-16.312
			c0.022-8.873,7.289-16.188,16.145-16.252C229.139,275.262,236.43,282.453,236.474,291.503z"/>
		<path fill="#FFFFFF" d="M225.077,264.492c2.353-0.021,4.448-0.587,6.194-1.605c-0.227-0.201-0.448-0.409-0.666-0.625
			c-6.522-6.468-13.092-13.039-19.54-19.5c-30.882-0.009-61.765-0.005-92.647-0.005c-0.987,0-1.975,0-2.973,0
			c-0.608-3.737-1.16-7.13-1.761-10.817c1.354,0,2.437,0,3.52,0c27.711,0,55.423-0.002,83.135-0.003
			c-1.434-1.657-2.495-3.498-3.156-5.476l-4.215-2.222l3.808-7.206c0.187-0.354,0.402-0.833,0.631-1.34
			c0.713-1.582,1.688-3.73,3.408-5.676c-2.531,0-5.067,0-7.618,0c0-7.206,0-14.219,0-21.409c12.314,0,24.54,0,36.979,0
			c-0.21,1.473-0.418,2.936-0.625,4.398l1.796-1.796l16.612-16.611l7.216-7.215c0.621-4.325,1.241-8.649,1.86-12.975
			c0.371-2.6,0.797-5.193,1.113-7.799c0.858-7.064-4.156-12.369-11.737-12.371c-48.504-0.012-97.007-0.006-145.511-0.006
			c-1.091,0-2.183,0-3.198,0c-0.205-0.419-0.376-0.635-0.418-0.873c-0.652-3.754-1.284-7.511-1.928-11.266
			c-0.949-5.542-4.984-9.47-10.273-9.556c-8.478-0.137-16.96-0.12-25.438-0.006c-4.857,0.065-8.99,3.613-10.053,8.246
			c-1.627,7.097,3.385,13.285,10.988,13.436c4.824,0.096,9.652,0.018,14.758,0.018c1.454,8.656,2.864,16.993,4.256,25.333
			c5.226,31.328,10.425,62.659,15.68,93.981c1.29,7.687,5.276,10.958,13.039,10.959c32.816,0.002,65.633,0.001,98.448,0
			C212.867,264.506,218.973,264.545,225.077,264.492z M193.287,156.072c13.7,0,27.45,0,41.55,0
			c-1.027,7.201-2.028,14.224-3.051,21.391c-12.824,0-25.571,0-38.499,0C193.287,170.42,193.287,163.351,193.287,156.072z
			 M182.052,210.076c-10.714,0-21.348,0-32.156,0c0-7.145,0-14.209,0-21.459c10.663,0,21.293,0,32.156,0
			C182.052,195.649,182.052,202.705,182.052,210.076z M149.866,156.018c10.771,0,21.397,0,32.222,0c0,7.142,0,14.199,0,21.473
			c-10.82,0-21.46,0-32.222,0C149.866,170.297,149.866,163.234,149.866,156.018z M101.002,156.02c12.67,0,25.083,0,37.637,0
			c0,7.221,0,14.287,0,21.499c-11.368,0-22.599,0-34.047,0C103.405,170.413,102.214,163.278,101.002,156.02z M106.425,188.539
			c10.945,0,21.434,0,32.139,0c0,7.157,0,14.226,0,21.473c-9.391,0-18.846,0-28.555,0
			C108.838,202.998,107.658,195.928,106.425,188.539z"/>
		<g>
			<path fill="#FFFFFF" d="M165.977,332.641c0-10.908,0-21.712,0-32.733c7,0,13.893,0,21.014,0c0.05-0.94,0.119-1.678,0.121-2.415
				c0.012-4.263-0.031-8.525,0.017-12.788c0.071-6.404,3.979-10.28,10.396-10.284c24.808-0.016,49.615-0.014,74.424-0.002
				c6.602,0.004,10.485,3.945,10.512,10.611c0.016,4.123,0.003,8.246,0.003,12.369c0,0.748,0,1.496,0,2.465
				c4.999,0,9.732,0,14.466,0c5.556,0,5.556,0,5.556,5.567c0,8.176,0,16.353,0,24.528c0,0.834,0,1.667,0,2.682
				C256.957,332.641,211.584,332.641,165.977,332.641z"/>
		</g>
		<g>
			<path fill="#FFFFFF" d="M327.201,266.784c-16.836-16.83-33.433-33.419-50.186-50.166c-3.268,3.364-6.692,6.892-9.982,10.28
				c-10.276-10.275-20.188-20.188-29.931-29.93c11.543-11.542,23.229-23.227,34.842-34.839c9.701,9.702,19.622,19.625,29.651,29.657
				c-3.474,3.453-7.061,7.018-10.565,10.501c16.87,16.863,33.521,33.506,50.477,50.455c1.454-1.566,2.959-3.31,4.593-4.922
				c3.723-3.675,8.6-3.685,12.302-0.037c3.833,3.777,7.641,7.58,11.409,11.422c3.564,3.632,3.582,8.538-0.002,12.15
				c-7.776,7.838-15.582,15.648-23.425,23.42c-3.457,3.424-8.372,3.477-11.843,0.116c-4.016-3.888-7.964-7.849-11.858-11.86
				c-3.378-3.479-3.325-8.328,0.04-11.848C324.167,269.674,325.703,268.25,327.201,266.784z"/>
		</g>
		<g>
			<path fill="#FFFFFF" d="M294.442,130.158c2.109-0.053,4.102,0.841,5.756,2.492c9.742,9.724,19.499,19.434,29.196,29.203
				c3.588,3.615,3.544,8.488-0.029,12.152c-3.708,3.801-7.464,7.558-11.261,11.269c-3.732,3.648-8.567,3.609-12.293-0.101
				c-9.655-9.614-19.29-19.248-28.899-28.907c-3.681-3.7-3.658-8.566,0.01-12.29c3.727-3.783,7.509-7.511,11.261-11.269
				C289.84,131.047,291.814,130.151,294.442,130.158z"/>
		</g>
		<g>
			<path fill="#FFFFFF" d="M203.974,220.836c0.979-1.853,1.632-4.004,3-5.5c3.72-4.07,7.695-7.912,11.659-11.751
				c3.417-3.308,8.292-3.343,11.676,0.007c9.881,9.781,19.707,19.618,29.498,29.489c3.347,3.374,3.373,8.24,0.072,11.678
				c-3.87,4.031-7.818,7.992-11.853,11.858c-3.415,3.273-8.308,3.216-11.688-0.136c-9.822-9.74-19.581-19.545-29.354-29.336
				c-1.649-1.652-2.537-3.65-2.472-6.023C204.334,221.025,204.154,220.932,203.974,220.836z"/>
		</g>
	</g>
</g>
</svg>
