<?xml version="1.0" encoding="utf-8"?>
<!-- Generator: Adobe Illustrator 16.0.0, SVG Export Plug-In . SVG Version: 6.00 Build 0)  -->
<!DOCTYPE svg PUBLIC "-//W3C//DTD SVG 1.1//EN" "http://www.w3.org/Graphics/SVG/1.1/DTD/svg11.dtd">
<svg version="1.1" id="Layer_1" xmlns="http://www.w3.org/2000/svg" xmlns:xlink="http://www.w3.org/1999/xlink" x="0px" y="0px"
	 width="410px" height="410px" viewBox="0 0 410 410" enable-background="new 0 0 410 410" xml:space="preserve">
<circle fill="#434343" stroke="#FFFFFF" stroke-width="6" stroke-miterlimit="10" cx="204.317" cy="205.295" r="198.296"/>
<g>
	<defs>
		<circle id="SVGID_1_" cx="204.316" cy="205.295" r="185"/>
	</defs>
	<clipPath id="SVGID_2_">
		<use xlink:href="#SVGID_1_"  overflow="visible"/>
	</clipPath>
	<g clip-path="url(#SVGID_2_)">
		<g>
			<path fill="#FFFFFF" d="M134.285,160.886c16.148,0,29.242-13.094,29.242-29.243c0-16.152-13.093-29.244-29.242-29.244
				c-16.151,0-29.242,13.092-29.242,29.244C105.043,147.792,118.134,160.886,134.285,160.886z"/>
			<path fill="#FFFFFF" d="M315.873,248.805c8.862,0,16.699-6.541,18.252-15.273c0.896-5.047-0.36-10.338-3.449-14.428
				c-3.021-4.001-7.626-6.66-12.607-7.248c-5.076-0.599-10.262,0.949-14.165,4.252c-3.845,3.255-6.241,8.021-6.536,13.053
				c-0.301,5.083,1.536,10.144,5.037,13.844C305.887,246.686,310.807,248.805,315.873,248.805z"/>
			<path fill="#FFFFFF" d="M348.539,284.668c-3.037-13.283-10.88-26.33-23.683-32.44c-7.174-3.423-15.091-2.666-21.93,3.003
				c-3.39,2.81-7.028,5.334-10.811,7.592c-2.029,1.213-4.125,2.34-6.317,3.231c-1.02,0.415-2.064,0.794-3.141,1.034
				c-0.512,0.113-1.02,0.136-1.509,0.098c0.34-0.922,0.54-1.906,0.551-2.928c0-11.938-0.102-13.354-0.228-15.59
				c-0.824-14.617-3.492-29.248-9.402-42.71c-5.674-12.921-14.791-24.808-27.1-31.999c-5.528-3.229-13.793-6.098-19.68-6.046
				c-5.888,0.053-10.967,1.325-16.534,4.233c-5.524,2.884-10.899,6.144-15.983,9.749c-4.709,3.341-9.25,7.067-13.118,11.384
				c-0.132,0.01-0.216,0.015-0.216,0.015s-1.729-3.193-2.679-4.72c-1.901-3.062-4.018-5.916-6.264-8.475
				c-2.244-2.56-4.614-4.822-6.975-6.752c-4.729-3.872-9.376-6.366-12.937-7.842c-1.788-0.743-3.303-1.242-4.519-1.576
				c-7.174-1.961-15.332-1.68-22.167-0.398c-0.542,0.105-1.064,0.23-1.679,0.398c-1.214,0.334-2.73,0.833-4.518,1.576
				c-3.56,1.477-8.208,3.971-12.937,7.843c-2.361,1.93-4.73,4.191-6.975,6.752c-2.245,2.558-4.361,5.413-6.262,8.474
				c-3.813,6.126-6.705,13.061-8.651,20.014c-1.966,6.961-3.028,13.938-3.564,20.396c-0.532,6.465-0.532,12.422-0.352,17.479
				c0.183,5.058,0.556,9.222,0.849,12.124c0.298,2.901,0.511,4.547,0.511,4.547l0.013,0.102c0.584,4.421,4.465,7.736,9.003,7.531
				c4.795-0.215,8.507-4.275,8.292-9.07c0,0-0.069-1.529-0.119-4.197c-0.046-2.665-0.064-6.469,0.149-10.976
				c0.216-4.503,0.662-9.716,1.571-15.123c0.908-5.403,2.278-11.005,4.234-16.187c1.099-2.94,2.393-5.729,3.825-8.292l-6.401,52.845
				c-0.296,2.578-0.326,5.402,0,8.09c0.668,5.517,2.643,10.551,5.567,14.85l4.502,94.938c0.261,5.152,4.405,9.402,9.664,9.639
				c5.588,0.25,10.321-4.076,10.572-9.664l3.215-71.713l3.342,71.73c0.256,5.152,4.397,9.406,9.655,9.646
				c5.588,0.256,10.324-4.068,10.58-9.656l4.35-95.271c4.252-6.426,6.337-14.336,5.338-22.588l-6.324-52.211
				c1.292,2.388,2.463,4.959,3.472,7.658c1.957,5.182,3.326,10.783,4.234,16.186c0.91,5.408,1.355,10.62,1.571,15.124
				c0.215,4.505,0.195,8.31,0.15,10.976c-0.05,2.667-0.119,4.196-0.119,4.196c-0.188,4.455,3.062,8.425,7.566,9.009
				c4.76,0.615,9.117-2.745,9.733-7.504l0.009-0.064c0,0,0.212-1.646,0.511-4.549c0.293-2.902,0.666-7.065,0.849-12.123
				c0.021-0.575,0.037-1.166,0.052-1.766c-0.025-0.57-0.059-1.14-0.088-1.71c1.019,0.591,2.043,1.157,3.067,1.693l-15.288,69.729
				c-0.277,1.42,0.089,2.874,1.007,3.99c0.92,1.116,2.276,1.758,3.723,1.758h15.611l2.998,60.22c0.279,5.38,4.8,9.8,10.191,9.913
				c5.305,0.111,9.968-3.959,10.566-9.232c0.023-0.214,0.041-0.43,0.054-0.645l3.21-60.256h1.674l2.997,60.22
				c0.278,5.38,4.8,9.8,10.192,9.913c5.305,0.111,9.967-3.958,10.566-9.232c0.023-0.214,0.041-0.43,0.053-0.645l3.209-60.256h15.108
				c1.442,0,2.797-0.639,3.717-1.752c0.919-1.113,1.288-2.564,1.009-4.01l-17.784-83.917v-6.778
				c5.396,12.803,7.482,26.572,8.624,40.327c0.024,0.303,0.049,0.606,0.074,0.91c0.31,3.599,2.826,6.571,6.102,7.682
				c-0.002,0.009-0.004,0.015-0.004,0.022c1.023,1.808,2.307,3.359,4.057,4.514c2.2,1.451,4.812,2.124,7.428,2.246
				c5.311,0.252,10.605-1.42,15.482-3.368l0.295,17.005l-9.351,42.481c-0.192,0.995,0.062,1.993,0.694,2.761
				c0.633,0.764,1.564,1.204,2.559,1.204h7.52l2.007,41.83c0.163,3.373,3.029,6.11,6.409,6.11c3.369,0,6.232-2.729,6.419-6.09
				l2.167-41.851h0.669l2.023,41.829c0.162,3.374,3.029,6.111,6.409,6.111c3.369,0,6.232-2.729,6.419-6.09l2.168-41.851h8.038
				c0.996,0,1.929-0.44,2.561-1.21c0.633-0.767,0.885-1.768,0.693-2.746l-9.445-42.48l0.198-6.413
				c2.707,7.178,3.683,14.839,4.316,22.435c0.244,2.929,2.85,5.201,5.785,5.039c2.855-0.155,5.169-2.584,5.207-5.44
				C350.772,300.582,350.347,292.578,348.539,284.668z M252.258,244.643c0.725-1.59,1.439-3.162-0.008,0.019
				s-0.732,1.609-0.009,0.019c-2.912,6.373-10.435,9.188-16.814,6.285l-18.757-8.532c2.771-2.728,2.805-7.317,0.06-10.07
				c-1.191-1.196-2.8-1.942-4.485-2.071c-1.006-0.077-2.006,0.117-3.008,0.204c-1.207,0.105-2.418,0.159-3.63,0.165
				c-0.091-0.768-0.122-1.549-0.07-2.33c-5.083,2.596-11.475,1.32-15.153-3.045c-3.062-3.635-3.78-8.834-1.812-13.16l0.336-0.736
				c2.171-4.774,7.271-7.729,12.494-7.228c5.558,0.532,10.174,4.864,11.077,10.37c0.177,1.077,0.21,2.178,0.099,3.264
				c3.302-1.633,7.284-1.824,10.896-0.18l22.474,10.223C252.328,230.74,255.148,238.26,252.258,244.643z"/>
			<path fill="#FFFFFF" d="M221.365,166.308c1.274,0.163,2.561,0.244,3.846,0.244c10.385,0,20.227-5.523,25.654-14.375
				c5.506-8.977,5.856-20.523,0.906-29.818c-4.857-9.119-14.307-15.239-24.622-15.896c-10.412-0.662-20.616,4.243-26.599,12.792
				c-6.035,8.626-7.087,20.119-2.713,29.698C202.113,158.319,211.147,165.005,221.365,166.308z"/>
		</g>
	</g>
</g>
</svg>
