<?xml version="1.0" encoding="utf-8"?>
<!-- Generator: Adobe Illustrator 16.0.0, SVG Export Plug-In . SVG Version: 6.00 Build 0)  -->
<!DOCTYPE svg PUBLIC "-//W3C//DTD SVG 1.1//EN" "http://www.w3.org/Graphics/SVG/1.1/DTD/svg11.dtd">
<svg version="1.1" id="Layer_1" xmlns="http://www.w3.org/2000/svg" xmlns:xlink="http://www.w3.org/1999/xlink" x="0px" y="0px"
	 width="410px" height="410px" viewBox="0 0 410 410" enable-background="new 0 0 410 410" xml:space="preserve">
<g>
	<circle fill="#434343" stroke="#FFFFFF" stroke-width="6" stroke-miterlimit="10" cx="205.021" cy="205.295" r="198.295"/>
	<g>
		<defs>
			<circle id="SVGID_1_" cx="205.021" cy="205.295" r="185"/>
		</defs>
		<clipPath id="SVGID_2_">
			<use xlink:href="#SVGID_1_"  overflow="visible"/>
		</clipPath>
		<path clip-path="url(#SVGID_2_)" fill="#FFFFFF" d="M343.828,390.295c-92.701,0-184.955,0-277.703,0
			c0.184-20.594,7.147-37.8,22.538-51.439c12.896-11.428,28.57-15.587,45.058-18.486c9.573-1.683,18.845-5.175,28.177-8.093
			c4.003-1.252,6.164-4.241,6.377-8.614c0.324-6.648,0.939-13.285,1.163-19.936c0.05-1.478-0.602-3.416-1.632-4.424
			c-8.043-7.859-10.325-17.981-11.643-28.535c-0.412-3.297-0.852-6.591-1.279-9.887c-0.434,0.315-0.867,0.631-1.3,0.945
			c-2.259-2.719-5.466-5.098-6.589-8.225c-2.688-7.488-4.623-15.274-6.428-23.041c-1.48-6.37,0.235-10.511,4.726-13.77
			c-4.697-15.236-6.437-30.821-3.672-46.431c4.404-24.866,24.879-43.384,50.219-46.866c11.698-1.607,23.228-1.431,34.638,1.841
			c25.34,7.265,41.68,27.066,43.07,53.269c0.682,12.821-0.28,25.647-4.798,38.25c5.503,2.776,6.056,7.933,4.948,13.059
			c-1.755,8.111-3.871,16.196-6.615,24.019c-1.044,2.977-4.248,5.194-6.467,7.759c-0.369-0.311-0.736-0.619-1.105-0.93
			c-1.034,6.398-2.127,12.787-3.089,19.197c-1.051,7.004-4.492,12.715-8.875,18.139c-1.591,1.969-2.648,4.947-2.683,7.481
			c-0.08,5.806,0.75,11.618,0.966,17.437c0.194,5.235,3.089,7.928,7.626,9.95c12.174,5.429,25.198,7.221,38.115,9.614
			c31.335,5.807,52.684,28.814,56.223,60.465C344.049,385.314,343.828,387.639,343.828,390.295z"/>
		<path clip-path="url(#SVGID_2_)" fill="#FFFFFF" d="M287.494,267.273c8.545-13.131,9.748-27.417,9.856-42.09
			c0.096-12.958-0.332-26.121,1.757-38.817c3.633-22.074,18.268-34.288,40.596-35.588c6.58-0.383,13.41-0.054,19.842,1.295
			c17.43,3.656,28.832,16.506,31.416,35.711c1.258,9.35,0.832,18.922,1.237,28.391c0.476,11.119,0.375,22.32,1.798,33.32
			c0.783,6.051,4.184,11.763,6.689,18.385c-9.081,6.865-20.883,6.662-32.6,7.971c0,4.578-0.742,9.202,0.283,13.394
			c0.599,2.444,3.678,5.163,6.242,6.083c7.965,2.854,16.182,5.034,24.364,7.242c17.592,4.744,25.921,17.447,29.644,34.156
			c0.383,1.718,0.336,3.532,0.531,5.797c-4.076,0-7.709,0-11.342,0c-20.828,0-41.658-0.105-62.484,0.087
			c-4.206,0.039-6.364-1.282-8.997-4.841c-12.314-16.644-27.885-28.5-49.498-30.137c-1.466-0.111-2.925-0.325-4.395-0.492
			c-1.509-5.102,1.96-6.438,5.312-7.505c5.385-1.714,10.825-3.29,16.316-4.615c5.455-1.317,7.771-4.474,7.182-10.057
			c-0.275-2.608-0.047-5.271-0.047-8.136C309.514,274.999,297.846,274.694,287.494,267.273z"/>
		<path clip-path="url(#SVGID_2_)" fill="#FFFFFF" d="M-18.7,342.02c-0.129-16.508,11.407-33.137,26.568-38.18
			c6.619-2.202,13.35-4.092,20.085-5.917c14.939-4.048,15.654-4.765,13.837-22.069c-11.222-1.115-22.819-1.234-33.146-8.421
			c10.06-13.772,9.508-29.442,9.61-45.132c0.083-12.766-0.264-25.776,2.021-38.23c3.776-20.581,17.786-31.95,38.635-33.277
			c6.576-0.419,13.401-0.067,19.848,1.236c19.239,3.888,31.481,18.252,33.255,39.157c0.927,10.919,0.82,21.944,0.793,32.921
			c-0.037,14.982,1.062,29.64,9.767,42.953c-9.892,7.508-21.528,7.851-33.428,9.549c0,4.219-0.375,8.516,0.187,12.688
			c0.221,1.641,2.265,3.701,3.95,4.354c5.097,1.974,10.428,3.343,15.661,4.966c2.059,0.64,4.367,0.944,6.069,2.117
			c1.428,0.983,2.139,3.006,3.168,4.568c-1.434,0.745-2.825,2.035-4.309,2.153c-22.98,1.833-39.024,14.495-51.688,32.642
			c-0.783,1.122-2.443,2.316-3.701,2.321c-25.313,0.114-50.628,0.061-75.942,0.024C-17.763,342.443-18.067,342.242-18.7,342.02z"/>
	</g>
</g>
</svg>
